<svg width="24" height="24" viewBox="0 0 24 24" fill="none" xmlns="http://www.w3.org/2000/svg">
<path fill-rule="evenodd" clip-rule="evenodd" d="M19.5303 9.03046C19.8232 8.73757 19.8232 8.26281 19.5303 7.96991C19.2374 7.67702 18.7627 7.67702 18.4698 7.96991L12.0001 14.4396L5.53033 7.96992C5.23744 7.67702 4.76268 7.67702 4.46978 7.96992C4.177 8.26282 4.17693 8.73761 4.46978 9.03046L11.4698 16.0305L11.5264 16.0822C11.5459 16.0981 11.5663 16.1125 11.587 16.1262C11.7535 16.2363 11.9543 16.2732 12.1436 16.2365C12.2382 16.2182 12.3299 16.1812 12.4131 16.1262C12.4338 16.1125 12.4542 16.0981 12.4737 16.0822C12.4933 16.0662 12.512 16.0488 12.5303 16.0305L19.5303 9.03046Z" fill="#121111"/>
</svg>
