<svg width="24" height="24" viewBox="0 0 24 24" fill="none" xmlns="http://www.w3.org/2000/svg">
<path fill-rule="evenodd" clip-rule="evenodd" d="M4.46967 14.9696C4.17678 15.2624 4.17678 15.7372 4.46967 16.0301C4.76256 16.323 5.23732 16.323 5.53022 16.0301L11.9999 9.56038L18.4697 16.0301C18.7626 16.323 19.2373 16.323 19.5302 16.0301C19.823 15.7372 19.8231 15.2624 19.5302 14.9696L12.5302 7.96956C12.3471 7.78646 12.0928 7.71768 11.8564 7.7635C11.7618 7.78186 11.6701 7.81881 11.5869 7.87385C11.5662 7.8875 11.5458 7.9019 11.5263 7.9178C11.5067 7.9338 11.488 7.95127 11.4697 7.96956L4.46967 14.9696Z" fill="#121111"/>
</svg>
