<svg width="40" height="40" viewBox="0 0 40 40" fill="none" xmlns="http://www.w3.org/2000/svg">
<rect x="0.5" y="0.5" width="39" height="39" fill="white" fill-opacity="0.2"/>
<rect x="0.5" y="0.5" width="39" height="39" stroke="#121111"/>
<path d="M16.8122 26.1562C14.2966 26.1562 12.8591 24.0469 12.8591 20.3438C12.8591 16.6719 14.3278 14.5312 16.8122 14.5312C19.2966 14.5312 20.7653 16.6719 20.7653 20.3438C20.7653 24.0469 19.3122 26.1562 16.8122 26.1562ZM16.8122 24.9062C18.4372 24.9062 19.3903 23.2656 19.3903 20.3438C19.3903 17.4219 18.4372 15.75 16.8122 15.75C15.1872 15.75 14.2184 17.4219 14.2184 20.3438C14.2184 23.2656 15.1716 24.9062 16.8122 24.9062ZM26.0003 14.6875V26H24.5784V16.1562H24.5159L21.7659 17.9844V16.5625L24.5784 14.6875H26.0003Z" fill="#121111"/>
</svg>
