<svg width="40" height="40" viewBox="0 0 40 40" fill="none" xmlns="http://www.w3.org/2000/svg">
<rect x="0.5" y="0.5" width="39" height="39" fill="white" fill-opacity="0.2"/>
<rect x="0.5" y="0.5" width="39" height="39" stroke="#121111"/>
<path d="M15.3825 26.1562C14.5492 26.1562 13.8356 25.9297 13.2419 25.4766C12.6533 25.0234 12.2028 24.362 11.8903 23.4922C11.583 22.6224 11.4294 21.5729 11.4294 20.3438C11.4294 19.1302 11.5856 18.0885 11.8981 17.2188C12.2106 16.3438 12.6637 15.6771 13.2575 15.2188C13.8512 14.7604 14.5596 14.5312 15.3825 14.5312C16.2054 14.5312 16.9137 14.7604 17.5075 15.2188C18.1012 15.6771 18.5544 16.3438 18.8669 17.2188C19.1794 18.0885 19.3356 19.1302 19.3356 20.3438C19.3356 21.5729 19.1794 22.6224 18.8669 23.4922C18.5596 24.362 18.1091 25.0234 17.5153 25.4766C16.9216 25.9297 16.2106 26.1562 15.3825 26.1562ZM15.3825 24.9062C15.9242 24.9062 16.3877 24.7292 16.7731 24.375C17.1585 24.0208 17.4528 23.5026 17.6559 22.8203C17.8591 22.138 17.9606 21.3125 17.9606 20.3438C17.9606 19.375 17.8591 18.5469 17.6559 17.8594C17.4528 17.1719 17.1585 16.6484 16.7731 16.2891C16.3877 15.9297 15.9242 15.75 15.3825 15.75C14.8408 15.75 14.3747 15.9297 13.9841 16.2891C13.5986 16.6484 13.3018 17.1719 13.0934 17.8594C12.8903 18.5469 12.7887 19.375 12.7887 20.3438C12.7887 21.3125 12.8903 22.138 13.0934 22.8203C13.2966 23.5026 13.5908 24.0208 13.9762 24.375C14.3669 24.7292 14.8356 24.9062 15.3825 24.9062ZM24.4769 26.1562C23.7321 26.1562 23.0654 26.0312 22.4769 25.7812C21.8935 25.5312 21.43 25.1797 21.0862 24.7266C20.7477 24.2734 20.5654 23.75 20.5394 23.1562H21.9612C21.9873 23.5052 22.1123 23.8125 22.3362 24.0781C22.5654 24.3438 22.8649 24.5495 23.2347 24.6953C23.6045 24.8359 24.0133 24.9062 24.4612 24.9062C24.9508 24.9062 25.3909 24.8229 25.7816 24.6562C26.1774 24.4844 26.4847 24.25 26.7034 23.9531C26.9274 23.651 27.0394 23.3073 27.0394 22.9219C27.0394 22.5052 26.93 22.138 26.7112 21.8203C26.4977 21.5026 26.1852 21.2552 25.7737 21.0781C25.3623 20.901 24.8675 20.8125 24.2894 20.8125H23.3675V19.5781H24.2894C24.7425 19.5781 25.1461 19.4974 25.5003 19.3359C25.8545 19.1745 26.1279 18.9479 26.3206 18.6562C26.5185 18.3646 26.6175 18.026 26.6175 17.6406C26.6175 17.2708 26.529 16.9427 26.3519 16.6562C26.18 16.3698 25.9352 16.1484 25.6175 15.9922C25.2998 15.8307 24.93 15.75 24.5081 15.75C24.1019 15.75 23.7217 15.8229 23.3675 15.9688C23.0133 16.1146 22.7243 16.3229 22.5003 16.5938C22.2764 16.8594 22.154 17.1719 22.1331 17.5312H20.7737C20.7998 16.9479 20.9821 16.4297 21.3206 15.9766C21.6592 15.5182 22.1097 15.1641 22.6722 14.9141C23.2347 14.6589 23.8519 14.5312 24.5237 14.5312C25.2217 14.5312 25.831 14.6693 26.3519 14.9453C26.8779 15.2161 27.2816 15.5833 27.5628 16.0469C27.8441 16.5104 27.9821 17.0156 27.9769 17.5625C27.9821 18.1979 27.8128 18.7422 27.4691 19.1953C27.1253 19.6484 26.654 19.9583 26.055 20.125V20.2031C26.5394 20.2812 26.9586 20.4453 27.3128 20.6953C27.6722 20.9401 27.9456 21.2552 28.1331 21.6406C28.3258 22.0208 28.4196 22.4479 28.4144 22.9219C28.4196 23.5312 28.2503 24.0833 27.9066 24.5781C27.5628 25.0677 27.0889 25.4531 26.4847 25.7344C25.8857 26.0156 25.2165 26.1562 24.4769 26.1562Z" fill="#121111"/>
</svg>
