<svg width="40" height="40" viewBox="0 0 40 40" fill="none" xmlns="http://www.w3.org/2000/svg">
<rect x="0.5" y="0.5" width="39" height="39" fill="white" fill-opacity="0.2"/>
<rect x="0.5" y="0.5" width="39" height="39" stroke="#121111"/>
<path d="M15.6247 26.1562C14.7914 26.1562 14.0778 25.9297 13.4841 25.4766C12.8955 25.0234 12.445 24.362 12.1325 23.4922C11.8252 22.6224 11.6716 21.5729 11.6716 20.3438C11.6716 19.1302 11.8278 18.0885 12.1403 17.2188C12.4528 16.3438 12.9059 15.6771 13.4997 15.2188C14.0934 14.7604 14.8018 14.5312 15.6247 14.5312C16.4476 14.5312 17.1559 14.7604 17.7497 15.2188C18.3434 15.6771 18.7966 16.3438 19.1091 17.2188C19.4216 18.0885 19.5778 19.1302 19.5778 20.3438C19.5778 21.5729 19.4216 22.6224 19.1091 23.4922C18.8018 24.362 18.3512 25.0234 17.7575 25.4766C17.1637 25.9297 16.4528 26.1562 15.6247 26.1562ZM15.6247 24.9062C16.1664 24.9062 16.6299 24.7292 17.0153 24.375C17.4007 24.0208 17.695 23.5026 17.8981 22.8203C18.1012 22.138 18.2028 21.3125 18.2028 20.3438C18.2028 19.375 18.1012 18.5469 17.8981 17.8594C17.695 17.1719 17.4007 16.6484 17.0153 16.2891C16.6299 15.9297 16.1664 15.75 15.6247 15.75C15.083 15.75 14.6169 15.9297 14.2262 16.2891C13.8408 16.6484 13.544 17.1719 13.3356 17.8594C13.1325 18.5469 13.0309 19.375 13.0309 20.3438C13.0309 21.3125 13.1325 22.138 13.3356 22.8203C13.5387 23.5026 13.833 24.0208 14.2184 24.375C14.6091 24.7292 15.0778 24.9062 15.6247 24.9062ZM20.7972 24.9688L24.6566 20.9062C25.167 20.3698 25.555 19.9375 25.8206 19.6094C26.0915 19.276 26.2946 18.9557 26.43 18.6484C26.5706 18.3359 26.6409 18.0104 26.6409 17.6719C26.6409 17.2969 26.542 16.9635 26.3441 16.6719C26.1461 16.3802 25.8753 16.1536 25.5316 15.9922C25.193 15.8307 24.8128 15.75 24.3909 15.75C23.9482 15.75 23.5602 15.8385 23.2269 16.0156C22.8935 16.1927 22.6357 16.4427 22.4534 16.7656C22.2764 17.0885 22.1878 17.4583 22.1878 17.875H20.8597C20.8545 17.2188 21.0055 16.638 21.3128 16.1328C21.6253 15.6276 22.055 15.2344 22.6019 14.9531C23.1487 14.6719 23.7607 14.5312 24.4378 14.5312C25.1097 14.5312 25.7112 14.6693 26.2425 14.9453C26.779 15.2214 27.1982 15.599 27.5003 16.0781C27.8024 16.5573 27.9534 17.0885 27.9534 17.6719C27.9534 18.1042 27.8753 18.5182 27.7191 18.9141C27.5628 19.3047 27.2998 19.7396 26.93 20.2188C26.5654 20.6927 26.042 21.2812 25.3597 21.9844L22.7659 24.6562V24.75H28.1566V26H20.8128L20.7972 24.9688Z" fill="#121111"/>
</svg>
