<svg width="32" height="32" viewBox="0 0 32 32" fill="none" xmlns="http://www.w3.org/2000/svg">
<path d="M15.75 30.75C18.7167 30.75 21.6168 29.8703 24.0836 28.2221C26.5503 26.5738 28.4729 24.2311 29.6082 21.4903C30.7435 18.7494 31.0406 15.7334 30.4618 12.8237C29.883 9.91394 28.4544 7.24119 26.3566 5.1434C24.2588 3.04562 21.5861 1.61701 18.6764 1.03823C15.7666 0.459449 12.7506 0.756499 10.0097 1.89181C7.26886 3.02713 4.92618 4.94972 3.27796 7.41645C1.62973 9.88319 0.75 12.7833 0.75 15.75C0.75 18.15 1.31333 20.4167 2.31667 22.4283C3.07167 23.9467 2.02167 25.995 1.62167 27.49C1.53305 27.8207 1.53303 28.1688 1.62162 28.4995C1.71021 28.8301 1.88428 29.1316 2.12633 29.3737C2.36839 29.6157 2.6699 29.7898 3.00055 29.8784C3.3312 29.967 3.67935 29.967 4.01 29.8783C5.505 29.4783 7.55333 28.4283 9.07167 29.185C11.147 30.2155 13.4329 30.7512 15.75 30.75Z" stroke="#4EA3D0" stroke-width="1.5" stroke-linecap="round" stroke-linejoin="round"/>
</svg>
