<svg width="27" height="19" viewBox="0 0 27 19" fill="none" xmlns="http://www.w3.org/2000/svg">
<path d="M13.3333 0C12.2725 0 11.2551 0.421427 10.5049 1.17157C9.75476 1.92172 9.33333 2.93913 9.33333 4C9.33333 5.06087 9.75476 6.07828 10.5049 6.82843C11.2551 7.57857 12.2725 8 13.3333 8C14.3942 8 15.4116 7.57857 16.1618 6.82843C16.9119 6.07828 17.3333 5.06087 17.3333 4C17.3333 2.93913 16.9119 1.92172 16.1618 1.17157C15.4116 0.421427 14.3942 0 13.3333 0ZM14.6667 9.33333H12C8.32 9.33333 5.33333 12.32 5.33333 16V16.6667C5.33333 17.7733 6.22667 18.6667 7.33333 18.6667H19.3333C20.44 18.6667 21.3333 17.7733 21.3333 16.6667V16C21.3333 12.32 18.3467 9.33333 14.6667 9.33333ZM6 8C6.62667 8 7.2 7.84 7.69333 7.56C7.13413 6.66966 6.79209 5.66031 6.69481 4.61343C6.59753 3.56655 6.74775 2.51147 7.13333 1.53333C6.78667 1.41333 6.4 1.33333 6 1.33333C4.08 1.33333 2.66667 2.74667 2.66667 4.66667C2.66667 6.58667 4.08 8 6 8ZM5.48 9.33333H4.66667C2.09333 9.33333 0 11.4267 0 14V15.3333C0 15.7067 0.293333 16 0.666667 16H2.66667C2.66667 13.3867 3.74667 11.0267 5.48 9.33333ZM20.6667 8C22.5867 8 24 6.58667 24 4.66667C24 2.74667 22.5867 1.33333 20.6667 1.33333C20.2533 1.33333 19.88 1.41333 19.5333 1.53333C19.9189 2.51147 20.0691 3.56655 19.9719 4.61343C19.8746 5.66031 19.5325 6.66966 18.9733 7.56C19.4667 7.84 20.0267 8 20.6667 8ZM22 9.33333H21.1867C22.0776 10.2 22.7856 11.2365 23.2688 12.3816C23.7521 13.5267 24.0007 14.7571 24 16H26C26.3733 16 26.6667 15.7067 26.6667 15.3333V14C26.6667 11.4267 24.5733 9.33333 22 9.33333Z" fill="#4EA3D0"/>
</svg>
