<svg width="17" height="24" viewBox="0 0 17 24" fill="none" xmlns="http://www.w3.org/2000/svg">
<path d="M8.16667 0C9.32039 0 10.4482 0.342119 11.4075 0.983094C12.3668 1.62407 13.1145 2.53511 13.556 3.60101C13.9975 4.66692 14.113 5.8398 13.8879 6.97136C13.6628 8.10292 13.1073 9.14232 12.2915 9.95812C11.4756 10.7739 10.4362 11.3295 9.30469 11.5546C8.17314 11.7797 7.00025 11.6641 5.93435 11.2226C4.86844 10.7811 3.9574 10.0334 3.31643 9.07416C2.67545 8.11487 2.33333 6.98706 2.33333 5.83333L2.33917 5.58017C2.40441 4.07838 3.04688 2.65974 4.13259 1.6201C5.21831 0.580465 6.66346 8.68496e-05 8.16667 0ZM10.5 14C12.0471 14 13.5308 14.6146 14.6248 15.7085C15.7188 16.8025 16.3333 18.2862 16.3333 19.8333V21C16.3333 21.6188 16.0875 22.2123 15.6499 22.6499C15.2123 23.0875 14.6188 23.3333 14 23.3333H2.33333C1.71449 23.3333 1.121 23.0875 0.683417 22.6499C0.245833 22.2123 0 21.6188 0 21V19.8333C0 18.2862 0.614582 16.8025 1.70854 15.7085C2.80251 14.6146 4.28624 14 5.83333 14H10.5Z" fill="#4EA3D0"/>
</svg>
