<svg width="19" height="21" viewBox="0 0 19 21" fill="none" xmlns="http://www.w3.org/2000/svg">
<path d="M0 19.18V7.59067C0 7.24933 0.0764444 6.92622 0.229333 6.62133C0.382222 6.31645 0.592889 6.06533 0.861333 5.868L8.04133 0.430667C8.41733 0.143556 8.84667 0 9.32933 0C9.812 0 10.244 0.143556 10.6253 0.430667L17.8053 5.86667C18.0747 6.064 18.2853 6.31556 18.4373 6.62133C18.5902 6.92622 18.6667 7.24933 18.6667 7.59067V19.18C18.6667 19.5373 18.5338 19.8489 18.268 20.1147C18.0022 20.3804 17.6907 20.5133 17.3333 20.5133H12.8213C12.5156 20.5133 12.2596 20.4102 12.0533 20.204C11.8471 19.9969 11.744 19.7409 11.744 19.436V13.0773C11.744 12.7724 11.6409 12.5169 11.4347 12.3107C11.2276 12.1036 10.9716 12 10.6667 12H8C7.69511 12 7.43956 12.1036 7.23333 12.3107C7.02622 12.5169 6.92267 12.7724 6.92267 13.0773V19.4373C6.92267 19.7422 6.81956 19.9978 6.61333 20.204C6.40711 20.4102 6.15156 20.5133 5.84667 20.5133H1.33333C0.976 20.5133 0.664444 20.3804 0.398666 20.1147C0.132889 19.8489 0 19.5373 0 19.18Z" fill="#0E3D5D"/>
</svg>
